<svg xmlns="http://www.w3.org/2000/svg"  viewBox="0 0 48 48" width="48px" height="48px" fill-rule="evenodd" clip-rule="evenodd"><linearGradient id="SVGID_1_" x1="36.295" x2="6.267" y1="5.664" y2="35.692" gradientUnits="userSpaceOnUse"><stop offset="0" stop-color="#6560fe"/><stop offset=".033" stop-color="#6f6afe"/><stop offset=".197" stop-color="#9a97fe"/><stop offset=".362" stop-color="#bfbdff"/><stop offset=".525" stop-color="#dbdaff"/><stop offset=".687" stop-color="#efeeff"/><stop offset=".846" stop-color="#fbfbff"/><stop offset="1" stop-color="#fff"/></linearGradient><path fill="url(#SVGID_1_)" d="M33.21,11.178c0,0-0.149-2.211-2.08-2.966c-0.963-0.377-5.441-0.97-10.27-0.045	c-4.173-2.783-8.511-2.886-10.694-2.708c-0.7,0.057-1.103,0.822-0.77,1.441l1.215,2.258c-2.233,0.084-4.245,0.92-5.418,1.493	c-0.558,0.272-0.726,0.987-0.35,1.481c1.794,2.366,3.651,3.818,6.514,4.406c-2.609,1.822-5.413,4.367-7.773,7.385	C3.136,24.494,3.431,25.343,4.14,25.5c2.05,0.454,3.281,1.027,3.281,1.027s-2.487,2.077-3.938,4.586	c-0.429,0.743,0.261,1.643,1.093,1.434c1.622-0.406,2.965-0.516,4.839-0.787c-0.86,1.785-1.461,3.127-1.778,4.658	c-0.15,0.725,0.506,1.363,1.219,1.164c2.028-0.567,3.973-1.281,5.641-3.312c-1.039,2.238-0.814,4.98-0.129,6.39	c0.248,0.511,0.867,0.712,1.365,0.437c1.621-0.895,3.22-2.441,4.202-3.871c0.696,2.293,1.79,4.335,4.532,5.313	c0.727,0.26,1.474-0.418,1.272-1.163c-0.469-1.733-0.538-3.731-0.55-5.13c0.541,0.661,1.549,1.25,2.468,1.618	c0.675,0.271,1.398-0.278,1.324-1.001c-0.226-2.195-0.242-5.059,0.187-7.216l4.979,3.212c0.276,0.178,0.629,0.217,0.926,0.077	c1.678-0.794,2.913-2.143,3.562-3.661c0.216-0.505-0.044-1.085-0.553-1.293c-5.611-2.3-9.515-5.518-9.804-8.495	c1.239-0.759,7.613-1.458,12.294,2.092c0.394,0.299,0.966,0.236,1.297-0.132c1.869-2.076,1.582-4.793,2.645-6.528	c0.194-0.317,0.183-0.732-0.04-1.03C42.76,11.591,37.428,11.29,33.21,11.178z"/><path fill="none" stroke="#8251fe" stroke-linecap="round" stroke-linejoin="round" stroke-width="3" d="M7.407,27.227c0,0-2.54,2.121-4.02,4.682c-0.437,0.756,0.266,1.672,1.113,1.46	c1.657-0.415,3.027-0.527,4.941-0.804c-0.877,1.821-1.491,3.191-1.814,4.752c-0.153,0.739,0.516,1.391,1.243,1.187	c2.069-0.579,4.053-1.307,5.755-3.379c-1.058,2.279-0.831,5.07-0.135,6.511c0.254,0.526,0.892,0.732,1.403,0.449	c1.651-0.914,3.278-2.488,4.279-3.945"/><path fill="none" stroke="#8251fe" stroke-linecap="round" stroke-linejoin="round" stroke-width="3" d="M4.052,26.177c2.096,0.464,3.355,1.05,3.355,1.05"/><path fill="none" stroke="#8251fe" stroke-linecap="round" stroke-linejoin="round" stroke-width="3" d="M33.714,11.569c0,0-0.152-2.255-2.122-3.026c-1.384-0.541-9.875-1.537-16.469,2.002	c-4.884-2.787-10.55,0.833-11.048,1.024c2.063,2.992,4.052,4.79,7.346,5.467c-2.663,1.86-5.525,4.458-7.934,7.54	c-0.284,0.363-0.273,0.835-0.05,1.178"/><path fill="none" stroke="#8251fe" stroke-linecap="round" stroke-linejoin="round" stroke-width="3" d="M22.743,42.429c0.562,0.456,1.235,0.839,2.052,1.131c0.742,0.265,1.503-0.426,1.298-1.187	c-0.478-1.768-0.549-3.806-0.561-5.233c0.55,0.672,1.575,1.272,2.51,1.648c0.692,0.278,1.433-0.285,1.357-1.026	c-0.229-2.238-0.246-5.155,0.192-7.353l5.53,3.567c2.33-0.908,3.921-2.833,4.457-4.913c-6.199-2.362-10.585-5.826-10.895-9.019	c1.321-0.809,8.364-1.552,13.176,2.651c2.88-2.336,2.091-5.853,3.698-7.743c-0.579-1.405-2.274-2.213-4.396-2.687"/><path fill="none" stroke="#8251fe" stroke-linecap="round" stroke-linejoin="round" stroke-width="3" d="M10.19,8.962L8.132,5.137c0,0,6.881-1.59,13.105,3.059"/><line x1="38.37" x2="36.757" y1="20.646" y2="22.803" fill="none" stroke="#8251fe" stroke-linecap="round" stroke-linejoin="round" stroke-width="2"/><line x1="41.695" x2="40.082" y1="22.839" y2="24.997" fill="none" stroke="#8251fe" stroke-linecap="round" stroke-linejoin="round" stroke-width="2"/><line x1="37.481" x2="35.868" y1="25.414" y2="27.571" fill="none" stroke="#8251fe" stroke-linecap="round" stroke-linejoin="round" stroke-width="2"/><path fill="#8251fe" fill-rule="evenodd" d="M25.316,11.464c-0.059-0.082-0.066-0.191-0.019-0.281s0.14-0.147,0.242-0.147	c1.002-0.002,3.241,0.005,4.515,0.009c0.516,0.002,0.934,0.421,0.934,0.937c0,0.484,0,1.061,0,1.482	c0,0.335-0.264,0.611-0.598,0.625C29.295,14.054,26.941,13.732,25.316,11.464z" clip-rule="evenodd"/><path fill="none" stroke="#8251fe" stroke-linecap="round" stroke-linejoin="round" stroke-width="3" d="M10.91,22.315c-0.023,1.647,0.103,3.093,0.388,4.076c0.214,0.738,1.157,0.901,1.68,0.337	c0.981-1.059,2.439-2.027,4.462-2.926c-0.556,2.375-0.866,4.357-0.58,6.147c0.13,0.812,1.121,1.129,1.684,0.53	c1.202-1.281,2.706-2.172,4.763-2.345c-0.344,1.235-0.369,2.515-0.095,3.836c0.163,0.784,1.158,1.046,1.689,0.447	c1.482-1.672,2.809-1.824,4.688-2.008"/></svg>